/* XPM */
static char * mario_sprite_xpm[] = {
"40 40 661 2",
"  	c None",
". 	c #FF6C70",
"+ 	c #FF4044",
"@ 	c #FF2A2B",
"# 	c #FF1B19",
"$ 	c #FF9294",
"% 	c #FD363E",
"& 	c #FA1219",
"* 	c #FA1316",
"= 	c #FB2425",
"- 	c #EAB9BD",
"; 	c #F1D6D8",
"> 	c #F86868",
", 	c #FE888A",
"' 	c #F8252C",
") 	c #F21218",
"! 	c #EF0F11",
"~ 	c #F51919",
"{ 	c #E88487",
"] 	c #ED8E90",
"^ 	c #EC5354",
"/ 	c #EB6E6D",
"( 	c #FC888A",
"_ 	c #F1252B",
": 	c #E61015",
"< 	c #E30B0E",
"[ 	c #E91011",
"} 	c #F11718",
"| 	c #DE6E70",
"1 	c #DE5252",
"2 	c #FCFDFF",
"3 	c #ED9B9C",
"4 	c #FC4D4E",
"5 	c #FC9394",
"6 	c #EB2A2E",
"7 	c #DD0F14",
"8 	c #D8090C",
"9 	c #DC0B0D",
"0 	c #E51112",
"a 	c #ED1313",
"b 	c #EA0B0A",
"c 	c #CFA6A8",
"d 	c #DFBABC",
"e 	c #E3C1C2",
"f 	c #FC100E",
"g 	c #E94244",
"h 	c #D01216",
"i 	c #CD080B",
"j 	c #D10809",
"k 	c #D90B0C",
"l 	c #D60A0B",
"m 	c #EC1721",
"n 	c #FF2333",
"o 	c #F71C25",
"p 	c #C91818",
"q 	c #A91F1C",
"r 	c #A32C2A",
"s 	c #A32C2B",
"t 	c #AA2322",
"u 	c #EF6366",
"v 	c #C6191C",
"w 	c #BB080B",
"x 	c #C10607",
"y 	c #C80607",
"z 	c #C90E13",
"A 	c #FB303E",
"B 	c #C0171E",
"C 	c #841D16",
"D 	c #97452C",
"E 	c #96472E",
"F 	c #893723",
"G 	c #7E1211",
"H 	c #911C1A",
"I 	c #901716",
"J 	c #B13637",
"K 	c #EF585F",
"L 	c #C62427",
"M 	c #AA0B0C",
"N 	c #A30506",
"O 	c #AE0404",
"P 	c #C8181E",
"Q 	c #BD2626",
"R 	c #681D13",
"S 	c #130D0A",
"T 	c #301D16",
"U 	c #6E4030",
"V 	c #BE704F",
"W 	c #9D5B41",
"X 	c #3F1B17",
"Y 	c #830A07",
"Z 	c #971615",
"` 	c #F07073",
" .	c #C52324",
"..	c #A40F0F",
"+.	c #8F0707",
"@.	c #900303",
"#.	c #830806",
"$.	c #8F3B28",
"%.	c #A26243",
"&.	c #6E3F30",
"*.	c #C87B59",
"=.	c #C88E75",
"-.	c #CA815E",
";.	c #FCB485",
">.	c #D1956E",
",.	c #CB7B5B",
"'.	c #A22321",
").	c #EB6E6F",
"!.	c #AE1918",
"~.	c #9E0E0D",
"{.	c #840504",
"].	c #550703",
"^.	c #391409",
"/.	c #A36248",
"(.	c #CC7A59",
"_.	c #FFB182",
":.	c #6983B3",
"<.	c #8EA2C8",
"[.	c #EEBDA8",
"}.	c #FFD09E",
"|.	c #9DA4B5",
"1.	c #FDDDC4",
"2.	c #CB504B",
"3.	c #E58770",
"4.	c #632720",
"5.	c #53251D",
"6.	c #4C190D",
"7.	c #B67059",
"8.	c #FFA47A",
"9.	c #FFBB8A",
"0.	c #476075",
"a.	c #1B3E79",
"b.	c #FFDCCD",
"c.	c #FFD2A6",
"d.	c #BA947E",
"e.	c #F6BCA2",
"f.	c #FFDBB3",
"g.	c #FF9D78",
"h.	c #D26947",
"i.	c #BA6C51",
"j.	c #552217",
"k.	c #4F1B0E",
"l.	c #883720",
"m.	c #FEA77F",
"n.	c #FFBF94",
"o.	c #5AA1C3",
"p.	c #456DB0",
"q.	c #EEC6B6",
"r.	c #E19170",
"s.	c #EE9A7D",
"t.	c #FFC19A",
"u.	c #FFE0BD",
"v.	c #FFD4A3",
"w.	c #FEA980",
"x.	c #E07D5C",
"y.	c #B95D41",
"z.	c #8F4F3D",
"A.	c #672311",
"B.	c #E19781",
"C.	c #FFB696",
"D.	c #DD8572",
"E.	c #372A2D",
"F.	c #74564C",
"G.	c #A96853",
"H.	c #B37056",
"I.	c #D18769",
"J.	c #FFB085",
"K.	c #FFC495",
"L.	c #FFC994",
"M.	c #FCA685",
"N.	c #F5A482",
"O.	c #B5614D",
"P.	c #B26753",
"Q.	c #AA604B",
"R.	c #F6A488",
"S.	c #FFA282",
"T.	c #BF7361",
"U.	c #241716",
"V.	c #392A2A",
"W.	c #4B3636",
"X.	c #40271D",
"Y.	c #B17150",
"Z.	c #D48760",
"`.	c #FBA373",
" +	c #FFB685",
".+	c #FC766B",
"++	c #FD9171",
"@+	c #CF7E6B",
"#+	c #AD6150",
"$+	c #DE896F",
"%+	c #E18D71",
"&+	c #E58F6F",
"*+	c #CD7F63",
"=+	c #A86349",
"-+	c #70412E",
";+	c #181315",
">+	c #1E1617",
",+	c #442B1F",
"'+	c #8D5D43",
")+	c #774D3A",
"!+	c #E8E7F1",
"~+	c #FDFFFF",
"{+	c #F8FAFD",
"]+	c #E4EAF2",
"^+	c #E9EFF9",
"/+	c #FF9B9F",
"(+	c #FF1D21",
"_+	c #FF0F11",
":+	c #FF0F10",
"<+	c #FF0A0C",
"[+	c #FD1B17",
"}+	c #D72420",
"|+	c #BB5849",
"1+	c #CF7859",
"2+	c #C17759",
"3+	c #E18E67",
"4+	c #F49C70",
"5+	c #DA8B64",
"6+	c #9B5C40",
"7+	c #915B42",
"8+	c #4A2E22",
"9+	c #693D2B",
"0+	c #C99E7F",
"a+	c #BDA7A4",
"b+	c #EFEDF2",
"c+	c #C4C0C6",
"d+	c #C4C2C8",
"e+	c #EBEBF3",
"f+	c #FDFEFF",
"g+	c #F1F5FA",
"h+	c #FEFFFF",
"i+	c #FFFFFF",
"j+	c #EBECF0",
"k+	c #E3E9F3",
"l+	c #FE4C4C",
"m+	c #FE1616",
"n+	c #FE1717",
"o+	c #FB1616",
"p+	c #FF1617",
"q+	c #FE0E10",
"r+	c #86271B",
"s+	c #BD6B48",
"t+	c #BD7755",
"u+	c #C7815D",
"v+	c #E9976C",
"w+	c #FEA778",
"x+	c #E69267",
"y+	c #EB9467",
"z+	c #FAB483",
"A+	c #7F6E6C",
"B+	c #C1BBC0",
"C+	c #DDDCDF",
"D+	c #B2AFB6",
"E+	c #C0BFC3",
"F+	c #E8E7EB",
"G+	c #FBFEFF",
"H+	c #FAFFFF",
"I+	c #EEF4FB",
"J+	c #F6FBFF",
"K+	c #F9FCFF",
"L+	c #F3F2F4",
"M+	c #F2F9FB",
"N+	c #F30F0F",
"O+	c #EF0808",
"P+	c #DE0708",
"Q+	c #EC0C0C",
"R+	c #F41111",
"S+	c #FD1616",
"T+	c #FF1213",
"U+	c #38123C",
"V+	c #704C4D",
"W+	c #A96D56",
"X+	c #B8795B",
"Y+	c #DB8E66",
"Z+	c #FBAC7B",
"`+	c #FFB987",
" @	c #736668",
".@	c #6D6666",
"+@	c #6B6A6B",
"@@	c #7A777A",
"#@	c #B5B3BB",
"$@	c #E5E5EA",
"%@	c #F7F7F8",
"&@	c #E4F0FD",
"*@	c #EAF4FF",
"=@	c #EBF4FF",
"-@	c #EDF4FF",
";@	c #ECF0F9",
">@	c #F7F9FF",
",@	c #FCFAFD",
"'@	c #D1D2D4",
")@	c #C3181B",
"!@	c #A20609",
"~@	c #950202",
"{@	c #BB0203",
"]@	c #D40505",
"^@	c #EA0A0A",
"/@	c #FA1413",
"(@	c #FF1412",
"_@	c #2953D9",
":@	c #43163F",
"<@	c #833126",
"[@	c #965047",
"}@	c #E7846D",
"|@	c #C3ADB4",
"1@	c #6E6367",
"2@	c #959296",
"3@	c #7A7A81",
"4@	c #595356",
"5@	c #8E8C90",
"6@	c #C8C6CC",
"7@	c #FEFEFF",
"8@	c #C7CFDC",
"9@	c #BDC7DD",
"0@	c #D7DEF2",
"a@	c #E1E7F7",
"b@	c #ECEFFC",
"c@	c #F6F7FD",
"d@	c #F8F7FB",
"e@	c #F5F1F4",
"f@	c #B6B5BA",
"g@	c #7C2F47",
"h@	c #7A0100",
"i@	c #910101",
"j@	c #C50304",
"k@	c #EA0C0C",
"l@	c #403790",
"m@	c #1F61F9",
"n@	c #B70F14",
"o@	c #56182D",
"p@	c #FF100E",
"q@	c #C30A0A",
"r@	c #730202",
"s@	c #6B191A",
"t@	c #B6B3BB",
"u@	c #88858B",
"v@	c #817E88",
"w@	c #615F67",
"x@	c #777377",
"y@	c #9A999A",
"z@	c #C1C0BE",
"A@	c #B5B7BA",
"B@	c #A0A6B0",
"C@	c #A0A3AC",
"D@	c #CBCEDD",
"E@	c #E4E6EE",
"F@	c #EAEAEE",
"G@	c #E4E3E4",
"H@	c #E8E5E7",
"I@	c #654784",
"J@	c #CB0602",
"K@	c #E50707",
"L@	c #ED0D0E",
"M@	c #F91515",
"N@	c #7D204A",
"O@	c #265DEE",
"P@	c #A42D69",
"Q@	c #A51938",
"R@	c #D7080B",
"S@	c #E90D0D",
"T@	c #A20202",
"U@	c #820101",
"V@	c #7C6D73",
"W@	c #AFAEB4",
"X@	c #807E85",
"Y@	c #737278",
"Z@	c #767576",
"`@	c #A4A3A2",
" #	c #9A9D9F",
".#	c #727272",
"+#	c #9A9BA2",
"@#	c #CDCDCF",
"##	c #CCCBCB",
"$#	c #ACABA9",
"%#	c #D4D2D5",
"&#	c #4366CF",
"*#	c #482F7E",
"=#	c #DC0401",
"-#	c #E60806",
";#	c #ED0B0A",
">#	c #FF100A",
",#	c #513C9B",
"'#	c #AAA964",
")#	c #9FA671",
"!#	c #4940BB",
"~#	c #915444",
"{#	c #C60103",
"]#	c #A10102",
"^#	c #700000",
"/#	c #660000",
"(#	c #8F8182",
"_#	c #7A7979",
":#	c #AFAEAB",
"<#	c #D0D2D3",
"[#	c #656361",
"}#	c #888989",
"|#	c #B9B8B6",
"1#	c #C3C1C2",
"2#	c #8D8C8D",
"3#	c #D8D7DB",
"4#	c #3558CC",
"5#	c #153FB0",
"6#	c #1B44B7",
"7#	c #3A3FAA",
"8#	c #4741AB",
"9#	c #3050CB",
"0#	c #1A47CD",
"a#	c #D7BA2C",
"b#	c #FFEE19",
"c#	c #174DF0",
"d#	c #6B7687",
"e#	c #840A14",
"f#	c #901C1C",
"g#	c #952B2B",
"h#	c #989793",
"i#	c #A8A3A0",
"j#	c #A1A29F",
"k#	c #AFB0AF",
"l#	c #7997FF",
"m#	c #2248BF",
"n#	c #163FAD",
"o#	c #1942B4",
"p#	c #1A46BC",
"q#	c #1E4BCA",
"r#	c #2250D2",
"s#	c #1D46BB",
"t#	c #415177",
"u#	c #636F8A",
"v#	c #2353DE",
"w#	c #485EAF",
"x#	c #89635E",
"y#	c #603737",
"z#	c #4B282A",
"A#	c #4659BA",
"B#	c #4F71F0",
"C#	c #1940B1",
"D#	c #1842B2",
"E#	c #1943B7",
"F#	c #1C48C1",
"G#	c #1F4DCB",
"H#	c #204ECF",
"I#	c #1A44BA",
"J#	c #1E4DD3",
"K#	c #224FD2",
"L#	c #6781E9",
"M#	c #8B6654",
"N#	c #623D3B",
"O#	c #49282D",
"P#	c #0B2992",
"Q#	c #112788",
"R#	c #385CDA",
"S#	c #14379C",
"T#	c #153BA5",
"U#	c #1740AE",
"V#	c #1843B6",
"W#	c #1843B8",
"X#	c #1C49C3",
"Y#	c #1E4CCB",
"Z#	c #1D49C8",
"`#	c #214BC9",
" $	c #6F89EC",
".$	c #87523F",
"+$	c #813F1E",
"@$	c #1D3188",
"#$	c #092178",
"$$	c #0A2690",
"%$	c #0B2AA3",
"&$	c #2846C1",
"*$	c #2C4EC3",
"=$	c #11318E",
"-$	c #123699",
";$	c #153CA8",
">$	c #163DAA",
",$	c #1740B2",
"'$	c #1944BC",
")$	c #1A48C4",
"!$	c #1C49CC",
"~$	c #1D47C1",
"{$	c #2A4CBE",
"]$	c #9E654F",
"^$	c #7D3C1C",
"/$	c #4B3D68",
"($	c #0B2578",
"_$	c #09237C",
":$	c #092588",
"<$	c #092790",
"[$	c #0E2DA4",
"}$	c #2845AC",
"|$	c #0F2C82",
"1$	c #13379B",
"2$	c #183EAB",
"3$	c #1B48C1",
"4$	c #204ECE",
"5$	c #2352D7",
"6$	c #2454DE",
"7$	c #2556E2",
"8$	c #2557E5",
"9$	c #305FE9",
"0$	c #9B6550",
"a$	c #7C3D1F",
"b$	c #813B16",
"c$	c #15369A",
"d$	c #09216C",
"e$	c #092274",
"f$	c #0A237B",
"g$	c #092380",
"h$	c #0B288F",
"i$	c #253D94",
"j$	c #112B7C",
"k$	c #0F2C81",
"l$	c #163BA3",
"m$	c #1941B1",
"n$	c #1A47C0",
"o$	c #1D4AC8",
"p$	c #204ED1",
"q$	c #2352D9",
"r$	c #2656E2",
"s$	c #295BEA",
"t$	c #2A5DED",
"u$	c #9E6A4C",
"v$	c #753C22",
"w$	c #783A1C",
"x$	c #793814",
"y$	c #0B2C86",
"z$	c #092068",
"A$	c #0A206C",
"B$	c #09216E",
"C$	c #092171",
"D$	c #082072",
"E$	c #071C62",
"F$	c #203275",
"G$	c #10266D",
"H$	c #0E2A7C",
"I$	c #123596",
"J$	c #173BA2",
"K$	c #1941B2",
"L$	c #1A46BF",
"M$	c #1D4ACB",
"N$	c #224FD6",
"O$	c #2957E1",
"P$	c #2D5CE9",
"Q$	c #3363EA",
"R$	c #6F4D40",
"S$	c #6B351C",
"T$	c #743719",
"U$	c #7B3A17",
"V$	c #0E1E55",
"W$	c #0D205C",
"X$	c #081E60",
"Y$	c #091F65",
"Z$	c #091F66",
"`$	c #081E63",
" %	c #081D5C",
".%	c #071C53",
"+%	c #1D2D64",
"@%	c #162966",
"#%	c #0C2368",
"$%	c #0E297A",
"%%	c #12328E",
"&%	c #163A9E",
"*%	c #1840B0",
"=%	c #1B48C7",
"-%	c #2C59E2",
";%	c #2B5CE4",
">%	c #A2684F",
",%	c #C26E44",
"'%	c #D57F57",
")%	c #8A6C5D",
"!%	c #542915",
"~%	c #652F15",
"{%	c #5D2E18",
"]%	c #574447",
"^%	c #283974",
"/%	c #192D6B",
"(%	c #0D215F",
"_%	c #0B205D",
":%	c #172A64",
"<%	c #23346B",
"[%	c #30407A",
"}%	c #1D306B",
"|%	c #0C2161",
"1%	c #0C246D",
"2%	c #14369A",
"3%	c #1941B4",
"4%	c #1F4CCE",
"5%	c #2856DC",
"6%	c #2A58E3",
"7%	c #2151DD",
"8%	c #5F3D4F",
"9%	c #915249",
"0%	c #AC5A3B",
"a%	c #BD6740",
"b%	c #BC6D4B",
"c%	c #704A35",
"d%	c #1F3176",
"e%	c #10308E",
"f%	c #183DAC",
"g%	c #1B47C4",
"h%	c #2451D6",
"i%	c #2753DC",
"j%	c #2750CF",
"k%	c #6F413C",
"l%	c #8A4C41",
"m%	c #A05842",
"n%	c #C18574",
"o%	c #A7532D",
"p%	c #C5A19A",
"q%	c #4D5FA7",
"r%	c #112D84",
"s%	c #1539A2",
"t%	c #1942B6",
"u%	c #1E4BCC",
"v%	c #1E49CB",
"w%	c #3D4181",
"x%	c #733D2A",
"y%	c #7E3E21",
"z%	c #8F492D",
"A%	c #A15D46",
"B%	c #8C4525",
"C%	c #ECAE7F",
"D%	c #1F398B",
"E%	c #10318F",
"F%	c #183BA6",
"G%	c #1944BD",
"H%	c #1744C0",
"I%	c #62362A",
"J%	c #703A20",
"K%	c #76391D",
"L%	c #7F3D1D",
"M%	c #7A3B1E",
"N%	c #CD865A",
"O%	c #3F54A3",
"P%	c #0F297B",
"Q%	c #123293",
"R%	c #173DAA",
"S%	c #1F40A8",
"T%	c #6E381F",
"U%	c #6B351B",
"V%	c #6C3418",
"W%	c #683118",
"X%	c #BC7345",
"Y%	c #293F8C",
"Z%	c #0F2C80",
"`%	c #1539A3",
" &	c #5B3127",
".&	c #693319",
"+&	c #663117",
"@&	c #5D2F18",
"#&	c #B26F43",
"$&	c #0E2A80",
"%&	c #41282A",
"&&	c #613017",
"*&	c #622F16",
"=&	c #61331D",
"-&	c #A76C45",
";&	c #67473A",
">&	c #492614",
",&	c #512713",
"'&	c #7C4829",
")&	c #5E3F2D",
"!&	c #734A2E",
"                                          . + @ #                               ",
"                                      $ % & * = - ; >                           ",
"                                    , ' ) ! ~ { ] ^ /                           ",
"                                  ( _ : < [ } | 1 2 3 4                         ",
"                                5 6 7 8 9 0 a b c d e f                         ",
"                                g h i j k l m n o p q r s t                     ",
"                              u v w x y z A B C D E F G H I J                   ",
"                            K L M N O P Q R S T U V W X Y Z                     ",
"                          `  ...+.@.#.$.%.&.*.=.-.;.>.,.'.                      ",
"                          ).!.~.{.].^./.(._.:.<.[.}.|.1.                        ",
"                            2.3.4.5.6.7.8.9.0.a.b.c.d.e.f.                      ",
"                            g.h.i.j.k.l.m.n.o.p.q.r.s.t.u.v.                    ",
"                            w.x.y.z.A.B.C.D.E.F.G.H.I.J.K.L.                    ",
"                            M.N.O.P.Q.R.S.T.U.V.W.X.Y.Z.`. +                    ",
"                            .+++@+#+$+%+&+*+=+-+;+>+,+'+)+      !+~+            ",
"                {+]+^+/+(+_+:+<+[+}+|+1+2+3+4+5+6+7+8+9+0+a+b+c+d+e+f+          ",
"            g+h+h+i+j+k+l+m+n+o+n+p+q+r+s+t+u+v+w+x+y+z+  A+B+C+D+E+F+          ",
"          G+H+I+J+K+~+L+M+N+O+P+Q+R+S+T+U+V+W+X+Y+Z+`+     @.@+@@@#@$@%@        ",
"        &@*@=@-@;@>@2 ,@'@)@!@~@{@]@^@/@(@_@:@<@[@}@    |@1@2@3@4@5@6@7@        ",
"        8@9@0@a@b@c@d@e@f@    g@h@i@j@k@o+l@m@n@o@p@q@r@s@t@u@v@w@x@y@z@        ",
"        A@B@C@D@E@F@G@H@      I@J@K@P+L@M@N@O@P@Q@R@S@T@U@V@W@X@Y@Z@`@          ",
"           #.#+#@###$#%#      &#*#=#-#;#>#,#'#)#!#~#{#]#^#/#(#_#:#              ",
"          <#[#}#|#1#2#3#      4#5#6#7#8#9#0#a#b#c#d#e#f#g#                      ",
"              h#i#j#k#      l#m#n#o#p#q#r#s#t#u#v#w#                            ",
"                x#y#z#A#    B#C#n#D#E#F#G#H#I#J#K#L#                            ",
"              M#N#O#P#Q#    R#S#T#U#V#W#X#Y#Z#Z#`# $                            ",
"              .$+$@$#$$$%$&$*$=$-$;$>$,$'$)$!$~${$                              ",
"            ]$^$/$($_$:$<$[$}$|$1$2$3$4$5$6$7$8$9$                              ",
"          0$a$b$c$d$e$f$g$h$i$j$k$l$m$n$o$p$q$r$s$t$                            ",
"        u$v$w$x$y$z$A$B$C$D$E$F$G$H$I$J$K$L$M$N$O$P$Q$                          ",
"        R$S$T$U$V$W$X$Y$Z$`$ %.%+%@%#%$%%%&%*%=%5$-%;%    >%,%'%                ",
"        )%!%~%{%]%    ^%/%(%_%:%<%  [%}%|%1%2%3%4%5%6%7%8%9%0%a%b%              ",
"            c%                            d%e%f%g%h%i%j%k%l%m%n%o%p%            ",
"                                          q%r%s%t%u%v%w%x%y%z%A%B%C%            ",
"                                            D%E%F%G%H%I%J%K%L%M%N%              ",
"                                            O%P%Q%R%S%T%U%V%W%X%                ",
"                                              Y%Z%`% &.&+&@&#&                  ",
"                                                $&%&&&*&=&-&                    ",
"                                                ;&>&,&'&                        ",
"                                                  )&!&                          "};
